<svg width="198" height="185" viewBox="0 0 198 185" fill="none" xmlns="http://www.w3.org/2000/svg">
<g id="Group 7451">
<path id="Vector" d="M41.7181 98.791C42.8101 86.5246 50.6732 80.6186 65.5257 80.6186C85.6203 80.6186 89.3334 85.1617 89.3334 105.379V122.642C89.3334 142.632 85.6203 147.175 65.5257 147.175C50.8917 147.175 43.0286 142.632 41.7181 133.773V98.791ZM0 0.205353V181.93H40.4075V149.22C44.7759 172.844 58.9732 184.656 83.2177 184.656C123.844 184.656 133.017 174.434 133.017 123.551V104.016C133.017 53.1327 124.062 42.9107 85.4019 42.9107C59.1916 42.9107 46.5233 49.0439 41.4996 70.1694V0.205353H0Z" fill="#FAFAFA"/>
<path id="Vector_2" d="M198 143.314H160.869V181.93H198V143.314Z" fill="#FAFAFA"/>
</g>
</svg>
